<svg width="45" height="45" viewBox="0 0 45 45" fill="none" xmlns="http://www.w3.org/2000/svg">
<path d="M32.4171 0.0210379C29.0511 0.0210379 25.8799 1.51473 23.4968 4.21809L22.5139 5.3331L21.5125 4.19705C19.1294 1.49369 15.9582 0 12.5922 0C9.23552 0 6.07356 1.48317 3.6905 4.18654C1.30744 6.8899 0 10.4769 0 14.2952C0 18.1136 1.31671 21.7006 3.69977 24.4039L21.3641 44.4425L21.4012 44.4846C21.7072 44.8317 22.1152 45 22.5139 45C22.9219 45 23.3299 44.8212 23.6359 44.4741L41.3002 24.4355C43.6833 21.7321 45 18.1452 45 14.3268C45 10.5084 43.6926 6.91094 41.3095 4.21809C38.9357 1.50421 35.7738 0.0210379 32.4171 0.0210379ZM39.0563 21.8794L22.5232 40.6452L5.95302 21.8478C4.17268 19.8282 3.18978 17.1459 3.18051 14.2847C3.18051 11.4341 4.15413 8.75175 5.93447 6.73212C7.71482 4.723 10.0793 3.60799 12.5829 3.60799C15.1051 3.60799 17.4696 4.723 19.2592 6.75316L21.3827 9.16199C21.9761 9.8352 23.0332 9.8352 23.6359 9.16199L25.7501 6.76368C27.5304 4.74404 29.9042 3.62903 32.4171 3.62903C34.9299 3.62903 37.2945 4.74404 39.0748 6.76368C40.8551 8.78331 41.838 11.4656 41.8288 14.3268C41.8288 17.1774 40.8459 19.8597 39.0563 21.8794Z" fill="#FF0000"/>
<path d="M32.4171 0.0210379C29.0511 0.0210379 25.8799 1.51473 23.4968 4.21809L22.5139 5.3331L21.5125 4.19705C19.1294 1.49369 15.9582 0 12.5922 0C9.23552 0 6.07356 1.48317 3.6905 4.18654C1.30744 6.8899 0 10.4769 0 14.2952C0 18.1136 1.31671 21.7006 3.69977 24.4039L21.3641 44.4425L21.4012 44.4846C21.7072 44.8317 22.1152 45 22.5139 45C22.9219 45 23.3299 44.8212 23.6359 44.4741L41.3002 24.4355C43.6833 21.7321 45 18.1452 45 14.3268C45 10.5084 43.6926 6.91094 41.3095 4.21809C38.9357 1.50421 35.7738 0.0210379 32.4171 0.0210379ZM39.0563 21.8794L22.5232 40.6452L5.95302 21.8478C4.17268 19.8282 3.18978 17.1459 3.18051 14.2847C3.18051 11.4341 4.15413 8.75175 5.93447 6.73212C7.71482 4.723 10.0793 3.60799 12.5829 3.60799C15.1051 3.60799 17.4696 4.723 19.2592 6.75316L21.3827 9.16199C21.9761 9.8352 23.0332 9.8352 23.6359 9.16199L25.7501 6.76368C27.5304 4.74404 29.9042 3.62903 32.4171 3.62903C34.9299 3.62903 37.2945 4.74404 39.0748 6.76368C40.8551 8.78331 41.838 11.4656 41.8288 14.3268C41.8288 17.1774 40.8459 19.8597 39.0563 21.8794Z" stroke="#FF0000"/>
</svg>
